<svg width="60" height="60" viewBox="0 0 60 60" fill="none" xmlns="http://www.w3.org/2000/svg">
<rect width="60" height="60" rx="20" fill="#2196f3"/>
<path d="M23.8137 28.7628C25.7965 26.78 29.2545 26.78 31.2372 28.7628L32.4745 30L34.949 27.5255L33.7117 26.2883C32.0615 24.6363 29.8635 23.7245 27.5255 23.7245C25.1875 23.7245 22.9895 24.6363 21.3392 26.2883L17.6257 30C15.9883 31.6428 15.0688 33.8676 15.0688 36.1871C15.0688 38.5066 15.9883 40.7315 17.6257 42.3743C18.4375 43.1872 19.4019 43.8317 20.4636 44.2708C21.5252 44.7099 22.6631 44.9348 23.812 44.9328C24.9612 44.9351 26.0994 44.7103 27.1614 44.2713C28.2234 43.8322 29.1881 43.1875 30 42.3743L31.2372 41.137L28.7627 38.6625L27.5255 39.8998C26.5393 40.8815 25.2044 41.4327 23.8129 41.4327C22.4213 41.4327 21.0864 40.8815 20.1002 39.8998C19.1176 38.914 18.5659 37.579 18.5659 36.1871C18.5659 34.7953 19.1176 33.4602 20.1002 32.4745L23.8137 28.7628Z" fill="white"/>
<path d="M30 17.6258L28.7627 18.863L31.2372 21.3375L32.4745 20.1003C33.4607 19.1185 34.7956 18.5673 36.1871 18.5673C37.5787 18.5673 38.9136 19.1185 39.8997 20.1003C40.8824 21.086 41.4341 22.421 41.4341 23.8129C41.4341 25.2047 40.8824 26.5398 39.8997 27.5255L36.1862 31.2373C34.2035 33.22 30.7455 33.22 28.7627 31.2373L27.5255 30L25.051 32.4745L26.2882 33.7118C27.9385 35.3638 30.1365 36.2755 32.4745 36.2755C34.8125 36.2755 37.0105 35.3638 38.6607 33.7118L42.3742 30C44.0117 28.3573 44.9312 26.1324 44.9312 23.8129C44.9312 21.4934 44.0117 19.2685 42.3742 17.6258C40.7319 15.9874 38.5069 15.0673 36.1871 15.0673C33.8674 15.0673 31.6423 15.9874 30 17.6258Z" fill="white"/>
</svg>
