<svg width="32" height="32" viewBox="0 0 32 32" fill="none" xmlns="http://www.w3.org/2000/svg">
<rect width="32" height="32" rx="16" fill="#F3F4F6"/>
<path fill-rule="evenodd" clip-rule="evenodd" d="M11.6359 10.2857C11.6359 9.14907 12.0957 8.05898 12.9141 7.25526C13.7325 6.45153 14.8426 6 16 6C17.1574 6 18.2675 6.45153 19.0859 7.25526C19.9043 8.05898 20.3641 9.14907 20.3641 10.2857C20.3641 11.4224 19.9043 12.5124 19.0859 13.3162C18.2675 14.1199 17.1574 14.5714 16 14.5714C14.8426 14.5714 13.7325 14.1199 12.9141 13.3162C12.0957 12.5124 11.6359 11.4224 11.6359 10.2857ZM8.00012 23.719C8.03282 21.6566 8.89004 19.6896 10.3868 18.2424C11.8835 16.7953 13.8996 15.9842 16 15.9842C18.1004 15.9842 20.1165 16.7953 21.6132 18.2424C23.11 19.6896 23.9672 21.6566 23.9999 23.719C24.0024 23.8579 23.9637 23.9944 23.8884 24.112C23.8131 24.2295 23.7046 24.323 23.5761 24.3809C21.1993 25.4511 18.6147 26.0035 16 26C13.2981 26 10.7311 25.4209 8.42392 24.3809C8.29541 24.323 8.18688 24.2295 8.11161 24.112C8.03634 23.9944 7.99759 23.8579 8.00012 23.719Z" fill="white"/>
</svg>
